<svg id="visual" viewBox="0 0 1300 1000" width="1300" height="1000" xmlns="http://www.w3.org/2000/svg" xmlns:xlink="http://www.w3.org/1999/xlink" version="1.1"><rect x="0" y="0" width="1300" height="1000" fill="#FFFFFF"></rect><defs><linearGradient id="grad1_0" x1="23.1%" y1="0%" x2="100%" y2="100%"><stop offset="24%" stop-color="#66c4bf" stop-opacity="1"></stop><stop offset="76%" stop-color="#66c4bf" stop-opacity="1"></stop></linearGradient></defs><defs><linearGradient id="grad1_1" x1="23.1%" y1="0%" x2="100%" y2="100%"><stop offset="24%" stop-color="#66c4bf" stop-opacity="1"></stop><stop offset="76%" stop-color="#b7e2df" stop-opacity="1"></stop></linearGradient></defs><defs><linearGradient id="grad1_2" x1="23.1%" y1="0%" x2="100%" y2="100%"><stop offset="24%" stop-color="#ffffff" stop-opacity="1"></stop><stop offset="76%" stop-color="#b7e2df" stop-opacity="1"></stop></linearGradient></defs><defs><linearGradient id="grad2_0" x1="0%" y1="0%" x2="76.9%" y2="100%"><stop offset="24%" stop-color="#66c4bf" stop-opacity="1"></stop><stop offset="76%" stop-color="#66c4bf" stop-opacity="1"></stop></linearGradient></defs><defs><linearGradient id="grad2_1" x1="0%" y1="0%" x2="76.9%" y2="100%"><stop offset="24%" stop-color="#b7e2df" stop-opacity="1"></stop><stop offset="76%" stop-color="#66c4bf" stop-opacity="1"></stop></linearGradient></defs><defs><linearGradient id="grad2_2" x1="0%" y1="0%" x2="76.9%" y2="100%"><stop offset="24%" stop-color="#b7e2df" stop-opacity="1"></stop><stop offset="76%" stop-color="#ffffff" stop-opacity="1"></stop></linearGradient></defs><g transform="translate(1300, 0)"><path d="M0 738.1C-115.2 695.9 -230.4 653.8 -345 597.6C-459.6 541.3 -573.8 471 -639.2 369C-704.6 267.1 -721.3 133.5 -738.1 0L0 0Z" fill="#dbf0ef"></path><path d="M0 492C-76.8 464 -153.6 435.9 -230 398.4C-306.4 360.9 -382.5 314 -426.1 246C-469.7 178.1 -480.9 89 -492 0L0 0Z" fill="#91d3cf"></path><path d="M0 246C-38.4 232 -76.8 217.9 -115 199.2C-153.2 180.4 -191.3 157 -213.1 123C-234.9 89 -240.4 44.5 -246 0L0 0Z" fill="#66c4bf"></path></g><g transform="translate(0, 1000)"><path d="M0 -738.1C134.3 -721.8 268.7 -705.5 369 -639.2C469.4 -572.8 535.7 -456.4 591.5 -341.5C647.3 -226.6 692.7 -113.3 738.1 0L0 0Z" fill="#dbf0ef"></path><path d="M0 -492C89.6 -481.2 179.1 -470.4 246 -426.1C312.9 -381.9 357.1 -304.3 394.3 -227.7C431.6 -151.1 461.8 -75.5 492 0L0 0Z" fill="#91d3cf"></path><path d="M0 -246C44.8 -240.6 89.6 -235.2 123 -213.1C156.5 -190.9 178.6 -152.1 197.2 -113.8C215.8 -75.5 230.9 -37.8 246 0L0 0Z" fill="#66c4bf"></path></g></svg>