<?xml version="1.0" standalone="no"?>
<svg viewBox="0 0 200 200" xmlns="http://www.w3.org/2000/svg">
  <path fill="#66C4BF" d="M44.8,-77.8C57.4,-70.2,66.6,-57,73.5,-43.1C80.4,-29.2,85,-14.6,85.1,0.1C85.2,14.7,80.8,29.4,73.6,42.8C66.4,56.1,56.3,68,43.5,75.6C30.8,83.2,15.4,86.4,0,86.4C-15.3,86.3,-30.6,82.9,-43.3,75.3C-56.1,67.7,-66.3,55.9,-73.6,42.7C-81,29.4,-85.5,14.7,-85.7,-0.1C-86,-15,-81.8,-29.9,-75.1,-44.3C-68.4,-58.6,-59.1,-72.4,-46.1,-79.8C-33.2,-87.2,-16.6,-88.3,-0.3,-87.8C16.1,-87.4,32.1,-85.4,44.8,-77.8Z" transform="translate(100 100)" />
</svg>
