<svg id="visual" viewBox="0 0 1300 1000" width="1300" height="1000" xmlns="http://www.w3.org/2000/svg" xmlns:xlink="http://www.w3.org/1999/xlink" version="1.1"><rect x="0" y="0" width="1300" height="1000" fill="#66c4bf"></rect><path d="M0 123L108 118L217 132L325 111L433 168L542 142L650 213L758 216L867 80L975 205L1083 196L1192 108L1300 198L1300 0L1192 0L1083 0L975 0L867 0L758 0L650 0L542 0L433 0L325 0L217 0L108 0L0 0Z" fill="#eeeeee"></path><path d="M0 189L108 79L217 105L325 130L433 165L542 100L650 88L758 88L867 174L975 101L1083 135L1192 190L1300 175L1300 0L1192 0L1083 0L975 0L867 0L758 0L650 0L542 0L433 0L325 0L217 0L108 0L0 0Z" fill="#f3f3f3"></path><path d="M0 166L108 146L217 147L325 157L433 124L542 157L650 128L758 140L867 98L975 135L1083 92L1192 157L1300 62L1300 0L1192 0L1083 0L975 0L867 0L758 0L650 0L542 0L433 0L325 0L217 0L108 0L0 0Z" fill="#f8f8f8"></path><path d="M0 52L108 88L217 102L325 69L433 83L542 120L650 93L758 128L867 130L975 108L1083 108L1192 63L1300 135L1300 0L1192 0L1083 0L975 0L867 0L758 0L650 0L542 0L433 0L325 0L217 0L108 0L0 0Z" fill="#fdfdfd"></path><path d="M0 102L108 69L217 83L325 61L433 111L542 78L650 69L758 95L867 113L975 41L1083 52L1192 97L1300 109L1300 0L1192 0L1083 0L975 0L867 0L758 0L650 0L542 0L433 0L325 0L217 0L108 0L0 0Z" fill="#ffffff"></path><path d="M0 97L108 45L217 48L325 95L433 86L542 70L650 64L758 61L867 86L975 33L1083 35L1192 79L1300 71L1300 0L1192 0L1083 0L975 0L867 0L758 0L650 0L542 0L433 0L325 0L217 0L108 0L0 0Z" fill="#ffffff"></path><path d="M0 59L108 47L217 52L325 47L433 55L542 36L650 50L758 70L867 37L975 60L1083 37L1192 60L1300 48L1300 0L1192 0L1083 0L975 0L867 0L758 0L650 0L542 0L433 0L325 0L217 0L108 0L0 0Z" fill="#ffffff"></path><path d="M0 37L108 48L217 23L325 31L433 24L542 37L650 40L758 31L867 22L975 32L1083 20L1192 24L1300 26L1300 0L1192 0L1083 0L975 0L867 0L758 0L650 0L542 0L433 0L325 0L217 0L108 0L0 0Z" fill="#ffffff"></path></svg>