<svg id="visual" viewBox="0 0 1300 1000" width="1300" height="1000" xmlns="http://www.w3.org/2000/svg" xmlns:xlink="http://www.w3.org/1999/xlink" version="1.1"><path d="M0 81L118 71L236 81L355 111L473 101L591 101L709 101L827 71L945 81L1064 71L1182 51L1300 81L1300 0L1182 0L1064 0L945 0L827 0L709 0L591 0L473 0L355 0L236 0L118 0L0 0Z" fill="#58a6a2"></path><path d="M0 301L118 281L236 391L355 251L473 381L591 401L709 401L827 301L945 261L1064 441L1182 341L1300 341L1300 79L1182 49L1064 69L945 79L827 69L709 99L591 99L473 99L355 109L236 79L118 69L0 79Z" fill="#4c8e92"></path><path d="M0 351L118 371L236 491L355 321L473 441L591 461L709 451L827 381L945 361L1064 491L1182 401L1300 391L1300 339L1182 339L1064 439L945 259L827 299L709 399L591 399L473 379L355 249L236 389L118 279L0 299Z" fill="#437780"></path><path d="M0 551L118 541L236 671L355 521L473 531L591 641L709 561L827 471L945 491L1064 631L1182 521L1300 511L1300 389L1182 399L1064 489L945 359L827 379L709 449L591 459L473 439L355 319L236 489L118 369L0 349Z" fill="#3c616c"></path><path d="M0 751L118 771L236 791L355 801L473 741L591 791L709 821L827 791L945 771L1064 781L1182 771L1300 761L1300 509L1182 519L1064 629L945 489L827 469L709 559L591 639L473 529L355 519L236 669L118 539L0 549Z" fill="#354c56"></path><path d="M0 861L118 891L236 901L355 911L473 871L591 931L709 941L827 941L945 901L1064 941L1182 921L1300 891L1300 759L1182 769L1064 779L945 769L827 789L709 819L591 789L473 739L355 799L236 789L118 769L0 749Z" fill="#2c383f"></path><path d="M0 1001L118 1001L236 1001L355 1001L473 1001L591 1001L709 1001L827 1001L945 1001L1064 1001L1182 1001L1300 1001L1300 889L1182 919L1064 939L945 899L827 939L709 939L591 929L473 869L355 909L236 899L118 889L0 859Z" fill="#212529"></path></svg>