<svg id="visual" viewBox="0 0 2000 500" width="2000" height="500" xmlns="http://www.w3.org/2000/svg" xmlns:xlink="http://www.w3.org/1999/xlink" version="1.1"><rect x="0" y="0" width="2000" height="500" fill="#FFFFFF"></rect><path d="M1160 500L1257 500L1257 429L1276 429L1276 357L1163 357L1163 286L1035 286L1035 214L1218 214L1218 143L1054 143L1054 71L959 71L959 0L2000 0L2000 71L2000 71L2000 143L2000 143L2000 214L2000 214L2000 286L2000 286L2000 357L2000 357L2000 429L2000 429L2000 500L2000 500Z" fill="#66c4bf"></path><path d="M1285 500L1490 500L1490 429L1437 429L1437 357L1158 357L1158 286L1214 286L1214 214L1268 214L1268 143L1330 143L1330 71L1365 71L1365 0L2000 0L2000 71L2000 71L2000 143L2000 143L2000 214L2000 214L2000 286L2000 286L2000 357L2000 357L2000 429L2000 429L2000 500L2000 500Z" fill="#50a2a9"></path><path d="M1592 500L1502 500L1502 429L1531 429L1531 357L1438 357L1438 286L1346 286L1346 214L1339 214L1339 143L1564 143L1564 71L1632 71L1632 0L2000 0L2000 71L2000 71L2000 143L2000 143L2000 214L2000 214L2000 286L2000 286L2000 357L2000 357L2000 429L2000 429L2000 500L2000 500Z" fill="#42808f"></path><path d="M1679 500L1526 500L1526 429L1646 429L1646 357L1708 357L1708 286L1634 286L1634 214L1476 214L1476 143L1602 143L1602 71L1568 71L1568 0L2000 0L2000 71L2000 71L2000 143L2000 143L2000 214L2000 214L2000 286L2000 286L2000 357L2000 357L2000 429L2000 429L2000 500L2000 500Z" fill="#376071"></path><path d="M1860 500L1838 500L1838 429L1858 429L1858 357L1793 357L1793 286L1903 286L1903 214L1735 214L1735 143L1711 143L1711 71L1903 71L1903 0L2000 0L2000 71L2000 71L2000 143L2000 143L2000 214L2000 214L2000 286L2000 286L2000 357L2000 357L2000 429L2000 429L2000 500L2000 500Z" fill="#2c4251"></path></svg>