<svg id="visual" viewBox="0 0 1300 1000" width="1300" height="1000" xmlns="http://www.w3.org/2000/svg" xmlns:xlink="http://www.w3.org/1999/xlink" version="1.1"><rect width="1300" height="1000" fill="#FFFFFF"></rect><g><g transform="translate(735 242)"><path d="M0 -75.4L75.4 0L0 75.4L-75.4 0Z" fill="none" stroke="#66c4bf" stroke-width="2"></path></g><g transform="translate(1194 198)"><path d="M0 -55L55 0L0 55L-55 0Z" fill="none" stroke="#66c4bf" stroke-width="2"></path></g><g transform="translate(986 27)"><path d="M0 -31L31 0L0 31L-31 0Z" fill="none" stroke="#66c4bf" stroke-width="2"></path></g><g transform="translate(802 448)"><path d="M0 -40L40 0L0 40L-40 0Z" fill="none" stroke="#66c4bf" stroke-width="2"></path></g><g transform="translate(469 739)"><path d="M0 -37L37 0L0 37L-37 0Z" fill="none" stroke="#66c4bf" stroke-width="2"></path></g><g transform="translate(70 542)"><path d="M0 -30L30 0L0 30L-30 0Z" fill="none" stroke="#66c4bf" stroke-width="2"></path></g><g transform="translate(216 34)"><path d="M0 -67L67 0L0 67L-67 0Z" fill="none" stroke="#66c4bf" stroke-width="2"></path></g><g transform="translate(329 385)"><path d="M0 -40L40 0L0 40L-40 0Z" fill="none" stroke="#66c4bf" stroke-width="2"></path></g><g transform="translate(47 944)"><path d="M0 -40L40 0L0 40L-40 0Z" fill="none" stroke="#66c4bf" stroke-width="2"></path></g><g transform="translate(1274 945)"><path d="M0 -26L26 0L0 26L-26 0Z" fill="none" stroke="#66c4bf" stroke-width="2"></path></g><g transform="translate(957 731)"><path d="M0 -48L48 0L0 48L-48 0Z" fill="none" stroke="#66c4bf" stroke-width="2"></path></g><g transform="translate(1106 620)"><path d="M0 -18L18 0L0 18L-18 0Z" fill="none" stroke="#66c4bf" stroke-width="2"></path></g><g transform="translate(550 259)"><path d="M0 -55L55 0L0 55L-55 0Z" fill="none" stroke="#66c4bf" stroke-width="2"></path></g><g transform="translate(474 10)"><path d="M0 -50L50 0L0 50L-50 0Z" fill="none" stroke="#66c4bf" stroke-width="2"></path></g><g transform="translate(830 992)"><path d="M0 -71L71 0L0 71L-71 0Z" fill="none" stroke="#66c4bf" stroke-width="2"></path></g><g transform="translate(961 911)"><path d="M0 -27L27 0L0 27L-27 0Z" fill="none" stroke="#66c4bf" stroke-width="2"></path></g><g transform="translate(1254 18)"><path d="M0 -22L22 0L0 22L-22 0Z" fill="none" stroke="#66c4bf" stroke-width="2"></path></g><g transform="translate(151 316)"><path d="M0 -33L33 0L0 33L-33 0Z" fill="none" stroke="#66c4bf" stroke-width="2"></path></g><g transform="translate(1120 417)"><path d="M0 -40L40 0L0 40L-40 0Z" fill="none" stroke="#66c4bf" stroke-width="2"></path></g><g transform="translate(14 12)"><path d="M0 -18L18 0L0 18L-18 0Z" fill="none" stroke="#66c4bf" stroke-width="2"></path></g><g transform="translate(607 988)"><path d="M0 -57L57 0L0 57L-57 0Z" fill="none" stroke="#66c4bf" stroke-width="2"></path></g><g transform="translate(920 554)"><path d="M0 -39L39 0L0 39L-39 0Z" fill="none" stroke="#66c4bf" stroke-width="2"></path></g></g></svg>